<svg width="1351" height="1103" viewBox="0 0 1351 1103" fill="none" xmlns="http://www.w3.org/2000/svg">
<g clip-path="url(#clip0_267_876)">
<path d="M556.518 973.622L556.427 973.499C547.221 960.395 540.498 943.231 537.993 926.404C535.996 913.025 535.777 893.883 546.05 878.659C558.283 862.079 579.959 857.08 600.924 852.246C624.099 846.904 645.989 841.854 656.073 822.523C678.012 733.294 604.116 663.186 521.137 633.267L521.008 633.194C482.16 603.592 455.077 578.391 438.207 556.16C422.605 535.584 416.055 517.914 418.201 502.137C420.485 485.342 432.445 470.918 455.835 456.746C476.658 444.124 504.15 433.155 533.253 421.542C574.514 405.072 617.18 388.049 650.55 363.249C688.611 334.96 706.99 301.395 706.736 260.639C713.602 181.706 648.466 136.5 590.992 96.6087C587.503 94.1895 584.042 91.7877 580.627 89.3974L580.569 89.3491C557.955 67.9022 537.195 40.2714 520.523 9.43478C504.515 -20.1766 492.233 -52.7214 485.019 -84.6807L484.988 -84.8167L485.029 -84.9458C494.363 -112.657 509.632 -140.488 528.027 -163.299C548.64 -188.868 572.483 -207.438 596.982 -217.005L597.341 -216.093C540.353 -193.838 501.767 -131.468 485.998 -84.7623C500.979 -18.5427 536.559 46.2578 581.21 88.6128C584.618 90.9932 588.067 93.3888 591.544 95.8017C649.232 135.839 714.62 181.224 707.701 260.673C707.958 301.722 689.448 335.543 651.122 364.027C617.648 388.903 574.921 405.956 533.605 422.444C474.831 445.898 424.075 466.155 419.16 502.267C417.051 517.774 423.525 535.227 438.975 555.566C455.782 577.721 482.786 602.844 521.532 632.37C565.049 648.074 602.746 673.343 627.684 703.547C641.752 720.579 651.504 738.885 656.67 757.943C662.342 778.866 662.454 800.688 657.007 822.815L656.964 822.923C646.69 842.696 623.533 848.032 601.146 853.198C580.357 857.993 558.859 862.945 546.851 879.223C536.765 894.166 536.993 913.051 538.963 926.26C541.442 942.886 548.071 959.839 557.145 972.805C582.576 982.092 611.151 983.846 638.788 985.54C655.859 986.59 673.512 987.669 690.186 990.521L690.021 991.483C673.399 988.64 655.773 987.556 638.731 986.514C610.973 984.811 582.263 983.05 556.667 973.671L556.523 973.618L556.518 973.622Z" fill="#E8EDF5"/>
<path d="M615.187 939.995C602.799 923.124 595.122 900.019 595.736 880.515C596.04 871.012 598.168 862.837 602.069 856.22C611.939 839.487 632.706 833.321 652.785 827.364C675.404 820.656 696.77 814.315 702.563 793.981C726.291 710.716 643.216 661.389 558.827 624.12C499.233 597.803 462.601 574.685 446.711 553.047C440.902 545.136 437.867 537.432 437.491 529.831C435.863 497.099 483.928 469.916 539.588 438.445C577.793 416.843 621.101 392.357 653.59 362.693C690.817 328.707 708.1 293.134 706.439 253.95C703.547 185.783 650.636 151.518 599.467 118.377C590.536 112.592 581.294 106.611 572.591 100.598C542.822 80.038 520.464 47.1137 504.305 20.7221C489.016 -4.24653 476.711 -31.7774 468.707 -58.8886L468.669 -59.0124L468.697 -59.1392C473.599 -80.3582 482.177 -102.049 493.511 -121.865C505.651 -143.092 520.709 -161.573 537.044 -175.311C545.56 -182.475 554.625 -188.426 563.991 -192.999L564.424 -192.119C555.139 -187.583 546.141 -181.673 537.681 -174.558C506.079 -147.979 480.03 -103.724 469.684 -59.0447C477.658 -32.056 489.917 -4.65025 505.139 20.2077C521.242 46.512 543.529 79.3292 573.147 99.7879C581.839 105.794 591.069 111.769 600 117.554C651.38 150.828 704.509 185.236 707.421 253.904C709.095 293.396 691.705 329.215 654.253 363.411C621.684 393.15 578.327 417.664 540.075 439.293C484.697 470.602 436.871 497.647 438.474 529.776C439.145 543.31 448.427 557.056 466.841 571.792C486.777 587.744 516.999 604.568 559.235 623.222C596.382 639.63 638.416 660.146 668.528 687.944C684.617 702.795 695.865 718.608 701.958 734.945C708.902 753.555 709.426 773.504 703.514 794.245C697.577 815.095 675.96 821.506 653.075 828.296C633.175 834.197 612.596 840.309 602.921 856.709C599.103 863.182 597.017 871.197 596.721 880.535C596.045 901.812 605.353 927.428 619.898 944.337C631.977 947.969 645.435 950.043 661.032 950.675C673.542 951.21 686.468 950.96 698.968 950.719C715.348 950.405 732.28 950.08 748.419 951.512L748.332 952.486C732.25 951.05 715.344 951.379 698.989 951.697C686.475 951.94 673.532 952.187 660.992 951.653C645.252 951.012 631.676 948.911 619.478 945.229L619.34 945.186L619.247 945.08C617.843 943.457 616.492 941.751 615.19 939.978L615.187 939.995Z" fill="#E8EDF5"/>
<path d="M672.075 905.416C661.882 891.536 655.003 873.758 654.055 857.607C653.523 848.544 654.879 840.535 658.08 833.802C666.118 816.906 685.488 809.21 704.222 801.761C725.325 793.37 745.263 785.446 749.058 765.456C764.616 683.582 680.719 643.465 596.596 615.022C532.965 593.504 494.909 573.236 479.616 552.41C475.413 546.687 472.93 540.921 472.106 535.073C467.718 503.814 511.46 473.604 562.113 438.615C596.88 414.602 636.283 387.388 664.871 356.137C697.621 320.337 711.122 284.743 706.147 247.319C697.516 182.441 644.076 154.205 592.391 126.902C583.155 122.023 573.608 116.978 564.585 111.853C533.225 94.0153 508.651 63.0063 492.891 41.2345C475.248 16.8574 461.625 -8.14413 452.399 -33.0609L452.358 -33.1677L452.371 -33.2836C457.396 -76.2845 478.205 -120.884 506.696 -149.698C514.145 -157.23 522.321 -163.712 531.008 -168.961L531.518 -168.122C522.903 -162.919 514.787 -156.481 507.399 -149.009C479.083 -120.369 458.39 -76.0444 453.375 -33.3001C462.57 -8.49728 476.133 16.3814 493.7 40.6551C509.401 62.3566 533.887 93.2559 565.084 110.994C574.089 116.117 583.633 121.157 592.86 126.034C644.768 153.454 698.435 181.804 707.133 247.186C712.149 284.914 698.568 320.771 665.605 356.796C636.939 388.127 597.487 415.377 562.681 439.419C512.292 474.221 468.784 504.275 473.089 534.936C474.903 547.85 484.981 560.222 503.902 572.759C524.389 586.336 554.815 599.855 596.922 614.093C633.955 626.612 676.03 642.662 707.304 666.719C724.013 679.576 736.165 693.761 743.42 708.904C751.682 726.151 753.911 745.243 750.035 765.641C746.137 786.162 725.961 794.184 704.598 802.676C686.041 810.055 666.851 817.687 658.98 834.233C655.85 840.815 654.522 848.667 655.046 857.563C656.258 878.273 667.346 901.701 682.65 915.907C694.828 918.777 708.019 919.827 722.952 919.111C734.799 918.547 746.978 917.239 758.761 915.979C774.574 914.284 790.929 912.533 806.655 912.547L806.654 913.526C790.98 913.511 774.652 915.258 758.866 916.948C747.07 918.21 734.878 919.521 723 920.085C707.918 920.803 694.603 919.739 682.3 916.824L682.174 916.796L682.078 916.707C678.494 913.395 675.143 909.585 672.087 905.423L672.075 905.416Z" fill="#E8EDF5"/>
<path d="M728.18 871.435C720.161 860.514 714.364 847.387 712.383 834.701C711.041 826.073 711.616 818.228 714.109 811.386C720.309 794.331 738.286 785.088 755.673 776.156C775.262 766.086 793.765 756.578 795.569 736.92C802.956 656.437 718.232 625.524 634.378 605.898C553.503 586.975 512.939 566.13 506.741 540.301C499.588 510.519 539.009 477.272 584.649 438.769C615.973 412.348 651.477 382.395 676.164 349.566C704.444 311.952 714.161 276.332 705.87 240.668C691.541 179.019 637.523 156.765 585.284 135.252C575.766 131.331 565.924 127.276 556.597 123.078C527.472 109.968 503.293 85.8421 481.51 61.73C462.919 41.1497 447.216 17.2889 436.107 -7.2613L436.065 -7.35952L436.064 -7.46461C435.785 -48.4515 451.219 -93.1372 476.34 -124.094C482.749 -131.992 490.044 -139.002 498.018 -144.933L498.596 -144.145C490.696 -138.268 483.458 -131.315 477.103 -123.479C452.139 -92.7207 436.797 -48.3225 437.043 -7.57667C448.104 16.8569 463.735 40.5887 482.236 61.0679C503.952 85.0999 528.04 109.142 557.001 122.183C566.315 126.375 576.149 130.428 585.663 134.344C638.132 155.954 692.385 178.301 706.83 240.448C715.189 276.412 705.418 312.298 676.952 350.155C652.199 383.078 616.65 413.064 585.282 439.517C539.888 477.809 500.681 510.883 507.694 540.071C510.643 552.364 521.526 563.365 540.956 573.707C562 584.905 592.629 595.121 634.603 604.945C671.522 613.583 713.634 625.155 746.071 645.469C763.4 656.324 776.459 668.896 784.872 682.84C794.461 698.726 798.387 716.951 796.547 737.014C794.692 757.201 775.961 766.831 756.125 777.03C738.907 785.882 721.098 795.033 715.032 811.724C712.603 818.406 712.039 826.09 713.359 834.553C716.492 854.671 729.362 875.912 745.385 887.445C757.585 889.518 770.866 889.546 784.859 887.519C796.113 885.89 807.62 883.543 818.753 881.274C833.932 878.179 849.626 874.98 864.873 873.557L864.965 874.528C849.77 875.951 834.104 879.145 818.948 882.23C807.802 884.502 796.281 886.851 785 888.485C770.864 890.533 757.443 890.501 745.11 888.39L744.999 888.373L744.904 888.306C738.751 883.9 733.056 878.074 728.184 871.44L728.18 871.435Z" fill="#E8EDF5"/>
<path d="M545.892 554.01C543.902 551.301 542.398 548.478 541.366 545.536C531.451 517.236 566.543 480.951 607.173 438.939C635.06 410.107 666.659 377.426 687.45 343.007C711.262 303.58 717.193 267.934 705.593 234.025C685.582 175.548 630.931 159.233 578.086 143.457C568.314 140.541 558.208 137.522 548.604 134.308C519.582 124.588 493.731 103.531 470.112 82.223C449.907 63.9956 432.507 41.9721 419.799 18.5358L419.758 18.4596L419.746 18.3703C414.262 -20.5919 424.312 -65.3651 445.975 -98.483C451.383 -106.753 457.789 -114.292 465.013 -120.894L465.672 -120.172C458.508 -113.623 452.155 -106.145 446.79 -97.9515C425.265 -65.0485 415.269 -20.5729 420.694 18.1443C433.347 41.4542 450.656 63.3544 470.757 81.4916C494.296 102.722 520.054 123.703 548.904 133.375C558.495 136.591 568.593 139.6 578.356 142.515C631.444 158.363 686.337 174.75 706.507 233.702C718.213 267.898 712.244 303.814 688.278 343.506C667.434 378.016 635.789 410.739 607.871 439.61C567.463 481.39 532.563 517.48 542.282 545.204C546.374 556.886 558.06 566.516 577.998 574.658C599.598 583.476 630.434 590.394 672.27 595.8C709.075 600.556 751.229 607.655 784.824 624.222C802.774 633.074 816.736 644.028 826.307 656.773C837.216 671.288 842.846 688.656 843.043 708.375C843.237 728.226 825.946 739.467 807.643 751.361C791.761 761.681 775.335 772.356 771.071 789.21C769.358 795.979 769.555 803.492 771.655 811.542C776.742 831.029 791.384 850.081 808.107 858.984C820.501 860.27 833.502 859.245 846.754 855.921C857.429 853.245 868.284 849.876 878.787 846.614C893.313 842.104 908.325 837.441 923.08 834.553L923.269 835.513C908.569 838.392 893.575 843.049 879.077 847.546C868.561 850.81 857.696 854.186 846.994 856.867C833.597 860.221 820.446 861.258 807.913 859.938L807.818 859.932L807.733 859.889C790.751 850.88 775.868 831.541 770.709 811.781C768.565 803.567 768.367 795.888 770.121 788.959C774.481 771.739 791.067 760.963 807.11 750.532C825.181 738.786 842.257 727.687 842.064 708.374C841.289 629.273 755.735 607.568 672.145 596.764C601.188 587.592 560.483 573.881 545.884 554L545.892 554.01Z" fill="#E8EDF5"/>
<path d="M579.035 555.845C577.841 554.219 576.828 552.53 576 550.772C563.322 523.962 594.084 484.64 629.707 439.111C654.147 407.866 681.854 372.454 698.74 336.453C718.083 295.212 720.234 259.537 705.318 227.388C679.625 172.007 624.279 161.608 570.752 151.549C560.773 149.672 550.454 147.735 540.611 145.538C510.116 138.734 482.352 119.871 458.718 102.721C437.955 87.6553 414.85 69.4723 403.463 44.285C396.354 28.5568 394.015 8.78784 396.709 -12.8879C399.191 -32.8611 405.732 -53.6011 415.617 -72.8621C420.057 -81.5207 425.578 -89.5853 432.015 -96.8447L432.75 -96.1943C426.366 -88.9966 420.895 -80.9988 416.489 -72.418C399.855 -40.0056 387.935 7.5663 404.355 43.88C415.645 68.8512 438.633 86.9377 459.294 101.927C482.845 119.016 510.51 137.815 540.824 144.578C550.649 146.772 560.96 148.709 570.93 150.584C624.7 160.685 680.296 171.135 706.203 226.973C721.247 259.4 719.098 295.346 699.62 336.868C682.689 372.971 654.947 408.43 630.47 439.717C595.048 484.994 564.456 524.093 576.88 550.361C582.115 561.422 594.596 569.688 615.044 575.637C637.195 582.078 668.24 585.689 709.946 586.687C746.636 587.562 788.828 590.182 823.582 603.003C842.157 609.857 857.014 619.182 867.752 630.73C879.987 643.884 887.315 660.384 889.544 679.756C891.787 699.27 875.944 712.109 859.167 725.71C844.615 737.502 829.569 749.704 827.112 766.709C826.124 773.546 827.08 780.895 829.957 788.548C836.821 806.822 852.118 826.901 870.837 830.556C883.401 833.013 896.411 828.843 908.661 824.359C918.772 820.657 928.995 816.274 938.886 812.035C952.735 806.097 967.056 799.955 981.297 795.594L981.582 796.529C967.391 800.877 953.094 807.008 939.269 812.937C929.368 817.183 919.13 821.569 908.991 825.284C896.612 829.818 883.456 834.027 870.645 831.523C851.559 827.79 835.99 807.424 829.038 788.897C826.103 781.082 825.128 773.572 826.141 766.573C828.656 749.184 843.852 736.865 858.548 724.951C875.106 711.526 890.75 698.848 888.569 679.873C879.634 602.155 793.245 589.645 709.923 587.667C635.623 585.901 593.634 575.747 579.029 555.857L579.035 555.845Z" fill="#E8EDF5"/>
<path d="M612.081 558.145C611.567 557.446 611.09 556.734 610.647 556.006C595.206 530.687 621.638 488.327 652.248 439.283C673.25 405.627 697.058 367.484 710.043 329.896C724.917 286.842 723.289 251.138 705.059 220.74C673.662 168.386 617.531 163.894 563.252 159.55C553.124 158.739 542.658 157.902 532.633 156.757C501.917 153.253 472.503 137.603 447.346 123.209C425.3 110.595 407.215 91.3949 389.729 72.8241L387.251 70.193C375.62 57.8617 370.175 39.6528 371.062 16.0739C371.972 -8.16585 379.305 -31.739 385.291 -47.2496C388.793 -56.3188 393.424 -64.9131 399.049 -72.8042L399.845 -72.2363C394.261 -64.4132 389.671 -55.8868 386.199 -46.9004C378.835 -27.8382 357.21 36.8983 387.963 69.5112L390.44 72.1423C407.882 90.6625 425.914 109.811 447.831 122.353C472.908 136.699 502.217 152.29 532.748 155.778C542.756 156.92 553.216 157.761 563.333 158.566C617.857 162.934 674.243 167.444 705.897 220.23C724.285 250.884 725.941 286.864 710.97 330.209C697.947 367.9 674.11 406.095 653.079 439.795C622.647 488.565 596.356 530.684 611.486 555.488C617.855 565.937 631.144 572.836 652.107 576.587C674.814 580.648 706.066 580.96 747.64 577.537C784.212 574.526 826.446 572.673 862.362 581.751C881.553 586.606 897.318 594.31 909.21 604.653C922.764 616.445 931.798 632.071 936.059 651.103C940.352 670.271 925.954 684.718 910.715 700.011C897.494 713.275 883.823 726.998 883.172 744.171C882.912 751.05 884.632 758.233 888.272 765.522C898.454 785.878 916.664 800.574 933.59 802.088C947.144 803.303 960.481 797.74 970.586 792.761C980.162 788.042 989.788 782.648 999.09 777.433C1012.24 770.062 1025.83 762.442 1039.54 756.594L1039.92 757.497C1026.26 763.325 1012.69 770.932 999.567 778.288C990.25 783.515 980.619 788.912 971.015 793.644C960.792 798.679 947.293 804.3 933.497 803.066C919.718 801.834 905.12 792.068 894.54 777.66C891.878 774.034 889.467 770.111 887.393 765.955C883.675 758.519 881.918 751.173 882.187 744.129C882.849 726.569 896.658 712.714 910.013 699.313C925.061 684.214 939.274 669.949 935.097 651.309C917.998 574.961 830.779 571.659 747.716 578.497C670.257 584.875 626.976 578.399 612.08 558.123L612.081 558.145Z" fill="#E8EDF5"/>
<path d="M647.804 560.572C630.04 536.382 652.624 490.783 678.759 438.02C696.937 401.312 717.551 359.707 726.29 320.589C736.293 275.843 729.268 241.015 704.82 214.13C661.699 166.708 604.546 167.303 549.275 167.873C541.186 167.96 532.821 168.044 524.646 167.974C493.499 167.722 462.537 155.309 435.958 143.695C410.261 132.466 388.674 113.274 370.94 95.9767C358.291 83.6421 350.759 65.7379 348.546 42.7673C346.65 23.0444 348.859 0.76973 354.933 -21.6286C357.51 -31.1413 361.252 -40.2654 366.055 -48.7504L366.908 -48.2699C362.146 -39.8528 358.438 -30.8066 355.877 -21.3744C345.374 17.3548 343.998 68.3368 371.619 95.2811C389.289 112.512 410.794 131.634 436.348 142.802C462.837 154.376 493.683 166.745 524.651 167C532.817 167.069 541.178 166.98 549.258 166.9C576.935 166.615 605.557 166.318 632.159 172.061C662.062 178.512 686.063 192.064 705.54 213.48C730.22 240.62 737.315 275.729 727.24 320.809C718.47 360.04 697.839 401.704 679.631 438.464C653.508 491.203 630.948 536.762 648.854 560.362C656.252 570.116 670.087 575.635 691.143 577.241C713.978 578.979 744.779 576.097 785.301 568.435C821.758 561.543 864.03 555.211 901.1 560.546C920.908 563.393 937.572 569.482 950.621 578.626C965.495 589.047 976.23 603.811 982.528 622.5C988.872 641.315 975.916 657.364 962.204 674.355C950.309 689.094 938.009 704.344 939.177 721.682C939.643 728.581 942.118 735.604 946.541 742.546C958.536 761.388 978.523 773.892 996.3 773.674C1007.6 773.538 1019.44 769.463 1032.48 761.219C1041.55 755.479 1050.6 749.07 1059.35 742.873C1071.76 734.075 1084.61 724.979 1097.74 717.646L1098.22 718.502C1085.13 725.802 1072.31 734.888 1059.91 743.672C1051.15 749.876 1042.1 756.297 1033 762.047C1019.81 770.385 1007.81 774.509 996.312 774.651C987.171 774.76 977.487 771.727 968.3 765.872C959.412 760.207 951.602 752.317 945.713 743.07C941.202 735.988 938.677 728.812 938.198 721.742C937.002 704.014 949.425 688.622 961.443 673.731C974.978 656.953 987.767 641.11 981.599 622.803C956.335 547.834 868.277 553.73 785.478 569.388C744.862 577.067 713.982 579.955 691.06 578.212C669.702 576.586 655.641 570.936 648.065 560.949C647.975 560.826 647.881 560.698 647.79 560.575L647.804 560.572Z" fill="#E8EDF5"/>
<path d="M677.605 563.656C660.406 540.234 677.579 493.468 697.334 439.642C711.456 401.167 727.464 357.553 732.648 316.792C738.591 270.099 729.39 234.33 704.531 207.442C661.579 160.982 603.671 168.393 547.667 175.559C537.437 176.869 526.859 178.222 516.66 179.192C486.37 182.07 454.505 173.679 424.579 164.182C395.227 154.87 371.683 140.588 354.602 121.743C341.726 107.543 332.169 89.0479 326.959 68.2788C321.821 47.805 321.003 25.5772 324.595 3.99994C326.254 -5.99026 329.115 -15.6429 333.078 -24.6939L333.974 -24.2985C330.041 -15.3217 327.209 -5.75185 325.562 4.16147C318.267 47.9808 329.675 92.7822 355.327 121.089C372.053 139.544 396.102 154.122 424.877 163.258C454.704 172.721 486.451 181.086 516.571 178.226C526.758 177.258 537.327 175.904 547.552 174.597C603.801 167.403 661.961 159.965 705.26 206.793C730.329 233.906 739.605 269.931 733.628 316.93C728.427 357.801 712.402 401.465 698.264 439.99C677.798 495.748 660.119 543.909 680.668 565.804C689.318 575.025 704.217 579.195 726.209 578.558C750.033 577.865 781.696 571.575 823.007 559.322C859.346 548.544 901.655 537.742 939.884 539.33C960.307 540.178 977.875 544.64 992.083 552.585C1008.28 561.644 1020.71 575.532 1029.04 593.878C1037.43 612.337 1025.92 629.99 1013.75 648.673C1003.18 664.891 992.246 681.666 995.241 699.18C996.423 706.084 999.66 712.948 1004.86 719.56C1018.77 737.246 1040.05 747.328 1059.06 745.251C1070.88 743.961 1083.1 738.569 1094.42 729.671C1103.01 722.904 1111.51 715.467 1119.72 708.27C1131.38 698.054 1143.44 687.492 1155.99 678.696L1156.55 679.499C1144.04 688.265 1132 698.809 1120.36 709.006C1112.14 716.211 1103.63 723.655 1095.01 730.44C1083.55 739.455 1071.16 744.917 1059.16 746.227C1039.81 748.341 1018.19 738.113 1004.08 720.17C998.776 713.416 995.471 706.418 994.266 699.35C991.207 681.459 1002.25 664.521 1012.92 648.144C1024.95 629.692 1036.31 612.261 1028.15 594.287C994.715 520.682 905.823 535.781 823.274 560.263C743.66 583.871 698.113 585.846 679.94 566.475C679.102 565.581 678.324 564.644 677.607 563.669L677.605 563.656Z" fill="#E8EDF5"/>
<path d="M321.743 129.025C301.755 101.806 291.68 66.2081 294.269 29.6125C295.014 19.1105 296.978 8.92678 300.111 -0.644853L301.039 -0.340729C297.93 9.16028 295.979 19.2587 295.242 29.6788C292.033 75.0167 308.381 118.806 338.98 146.824C358.654 164.834 384.385 177.586 413.401 183.695C444.516 190.249 477.568 195.478 508.481 189.436C518.666 187.446 529.204 185.037 539.393 182.711C596.582 169.656 655.713 156.161 704.922 200.059C733.326 225.397 746.417 261.449 744.934 310.273C743.647 352.728 731.52 399.132 720.829 440.07C705.343 499.328 691.971 550.506 715.233 570.947C725.025 579.556 740.735 582.365 763.243 579.53C787.618 576.461 819.49 566.863 860.676 550.199C884.327 540.625 919.694 527.066 953.64 519.85C991.096 511.883 1020.61 512.942 1041.36 522.989C1058.21 531.147 1069.71 545.399 1075.56 565.356C1081.14 584.412 1072.17 603.302 1063.49 621.564C1054.97 639.501 1046.16 658.048 1051.24 676.664C1053.12 683.561 1057.12 690.254 1063.13 696.565C1078.93 713.169 1101.41 720.928 1121.78 716.812C1134.22 714.299 1146.17 707.827 1156.31 698.103C1164.45 690.297 1172.41 681.807 1180.11 673.596C1191 661.985 1202.26 649.98 1214.2 639.727L1214.84 640.472C1202.94 650.687 1191.7 662.677 1180.83 674.269C1173.12 682.489 1165.15 690.99 1156.99 698.81C1146.71 708.667 1134.6 715.226 1121.97 717.777C1101.28 721.956 1078.46 714.088 1062.42 697.243C1056.3 690.819 1052.22 683.982 1050.3 676.925C1045.12 657.963 1054.01 639.253 1062.61 621.153C1071.2 603.053 1080.09 584.342 1074.61 565.64C1068.85 545.957 1057.52 531.911 1040.93 523.875C1020.38 513.925 991.073 512.894 953.838 520.811C919.968 528.017 884.653 541.553 861.034 551.11C781.68 583.224 735.142 589.762 714.573 571.689C712.847 570.174 711.316 568.492 709.971 566.66C692.826 543.312 705.431 495.063 719.87 439.827C730.553 398.94 742.662 352.595 743.946 310.248C745.416 261.737 732.436 225.929 704.258 200.796C655.426 157.236 596.544 170.677 539.6 183.674C529.403 185.999 518.856 188.406 508.652 190.402C477.563 196.483 444.391 191.235 413.179 184.662C383.99 178.513 358.101 165.68 338.296 147.554C332.193 141.967 326.653 135.754 321.719 129.035L321.743 129.025Z" fill="#E8EDF5"/>
<path d="M293.59 144.141C288.515 137.23 284.009 129.856 280.162 122.12C269.946 101.592 264.336 78.4628 263.943 55.2251C263.752 44.1819 264.834 33.4781 267.149 23.4006L268.103 23.617C265.805 33.6141 264.735 44.2409 264.925 55.2011C265.714 101.485 287.285 145.359 322.637 172.563C345.096 189.847 372.515 200.768 401.935 204.147C432.703 207.68 468.468 210.03 500.411 200.654C510.56 197.674 521.02 194.262 531.144 190.96C589.298 171.987 649.432 152.365 704.613 193.333C736.356 216.902 753.25 252.974 756.265 303.62C758.887 347.663 750.669 396.8 743.419 440.154C732.922 502.914 723.851 557.112 749.83 576.103C760.774 584.102 777.283 585.543 800.315 580.511C825.246 575.063 857.324 562.167 898.382 541.086C921.957 528.983 957.283 511.655 991.73 501.023C1029.74 489.294 1060.36 487.635 1082.76 496.094C1100.94 502.962 1114.17 516.636 1122.07 536.734C1129.61 555.92 1122.09 576.287 1114.82 595.985C1107.67 615.346 1100.28 635.37 1107.29 654.156C1109.86 661.031 1114.62 667.562 1121.45 673.574C1138.9 688.94 1163.08 694.615 1184.55 688.381C1197.48 684.627 1209.14 677.076 1218.27 666.536C1226.02 657.617 1233.51 647.996 1240.74 638.696C1250.8 625.768 1261.2 612.394 1272.46 600.762L1273.17 601.443C1261.94 613.041 1251.56 626.387 1241.52 639.295C1234.28 648.608 1226.78 658.241 1219.01 667.174C1209.76 677.857 1197.94 685.514 1184.83 689.315C1163.04 695.64 1138.5 689.89 1120.8 674.301C1113.85 668.182 1108.99 661.519 1106.37 654.491C1099.24 635.362 1106.69 615.17 1113.9 595.638C1121.11 576.111 1128.57 555.922 1121.16 537.084C1113.37 517.256 1100.33 503.773 1082.41 497.007C1060.22 488.623 1029.81 490.289 992.02 501.955C957.647 512.563 922.377 529.864 898.835 541.951C819.74 582.57 772.212 593.672 749.256 576.889C722.797 557.545 731.906 503.068 742.457 439.989C749.699 396.686 757.907 347.609 755.291 303.676C752.294 253.343 735.525 217.504 704.033 194.123C649.256 153.457 589.367 172.998 531.451 191.894C521.327 195.197 510.854 198.611 500.695 201.598C468.588 211.019 432.701 208.667 401.833 205.123C372.238 201.722 344.65 190.736 322.05 173.343C311.352 165.11 301.745 155.227 293.603 144.139L293.59 144.141Z" fill="#E8EDF5"/>
<path d="M263.72 159.426C246.882 136.497 236.408 109.426 233.613 80.8329C232.477 69.2251 232.67 57.9915 234.181 47.4499L235.148 47.5894C233.648 58.0542 233.459 69.2095 234.584 80.7415C242.378 160.465 309.386 222.317 390.458 224.615C426.505 225.636 461.724 221.238 492.325 211.891C496.073 210.102 499.852 208.282 503.664 206.446C566.898 175.979 638.567 141.449 704.294 186.645C740.133 206.66 760.453 239.451 766.371 286.858C771.539 328.259 765.344 373.855 759.354 417.945C750.833 480.663 743.473 534.826 772.47 556.916C784.921 566.401 803.284 569.354 828.597 565.953C856.149 562.249 891.295 551.135 936.061 531.977C971.143 501.841 1011.69 481.499 1050.24 474.687C1071.98 470.843 1092.71 471.38 1111.84 476.287C1132.83 481.667 1151.88 492.336 1168.44 507.989L1168.49 508.026L1168.52 508.076C1180.67 526.771 1173.91 549.554 1167.38 571.59C1161.32 592.049 1155.05 613.203 1163.3 631.68C1166.81 638.731 1172.34 645.104 1179.72 650.608C1194.93 661.95 1213.73 666.622 1232.65 663.769C1251.87 660.871 1268.75 650.656 1280.19 634.985C1287.45 625.034 1294.37 614.387 1301.06 604.085C1310.38 589.745 1320.01 574.911 1330.69 561.809L1331.45 562.428C1320.8 575.492 1311.18 590.301 1301.88 604.616C1295.18 614.926 1288.26 625.586 1280.97 635.561C1269.38 651.438 1252.27 661.797 1232.79 664.735C1213.61 667.622 1194.55 662.879 1179.13 651.387C1171.63 645.791 1166 639.297 1162.41 632.095C1154.01 613.27 1160.33 591.941 1166.44 571.31C1173.2 548.506 1179.59 526.964 1167.73 508.658C1100.89 445.564 1003.52 475.301 936.638 532.774L936.579 532.817L936.513 532.851C891.634 552.061 856.378 563.211 828.727 566.926C803.142 570.369 784.544 567.353 771.878 557.699C758.389 547.43 751.725 529.904 750.907 502.558C750.177 478.21 754.165 448.875 758.386 417.814C764.367 373.784 770.556 328.252 765.405 286.976C759.528 239.903 739.371 207.356 703.782 187.476C638.491 142.574 567.091 176.975 504.093 207.329C500.271 209.172 496.474 210.998 492.716 212.794L492.646 212.823C461.938 222.21 426.594 226.624 390.429 225.598C351.054 224.481 313.445 209.238 284.545 182.679C276.805 175.565 269.842 167.774 263.718 159.435L263.72 159.426Z" fill="#E8EDF5"/>
</g>
<defs>
<clipPath id="clip0_267_876">
<rect width="1100" height="868" fill="white" transform="translate(699.631 -298) rotate(53.7095)"/>
</clipPath>
</defs>
</svg>
